<mxfile host="app.diagrams.net" modified="2022-02-15T12:23:35.918Z" agent="5.0 (Macintosh; Intel Mac OS X 10_15_7) AppleWebKit/605.1.15 (KHTML, like Gecko) Version/15.2 Safari/605.1.15" etag="1uPsxBEC43BpcSW3c4hV" version="16.5.6" type="github">
  <diagram id="QcoNlvzZdOJHn5m3_Gcg" name="Page-1">
    <mxGraphModel dx="772" dy="721" grid="1" gridSize="10" guides="1" tooltips="1" connect="1" arrows="1" fold="1" page="1" pageScale="1" pageWidth="827" pageHeight="1169" math="0" shadow="0">
      <root>
        <mxCell id="0" />
        <mxCell id="1" parent="0" />
        <mxCell id="WLsBAxwANJh_R0PL17Mm-3" style="edgeStyle=orthogonalEdgeStyle;rounded=0;orthogonalLoop=1;jettySize=auto;html=1;entryX=0.5;entryY=0;entryDx=0;entryDy=0;" parent="1" source="WLsBAxwANJh_R0PL17Mm-1" target="WLsBAxwANJh_R0PL17Mm-2" edge="1">
          <mxGeometry relative="1" as="geometry" />
        </mxCell>
        <mxCell id="WLsBAxwANJh_R0PL17Mm-1" value="Hyperparameter-level" style="rounded=0;whiteSpace=wrap;html=1;fontSize=16;fillColor=#dae8fc;strokeColor=#6c8ebf;" parent="1" vertex="1">
          <mxGeometry x="212.5" y="140" width="175" height="60" as="geometry" />
        </mxCell>
        <mxCell id="WLsBAxwANJh_R0PL17Mm-33" style="edgeStyle=orthogonalEdgeStyle;rounded=0;orthogonalLoop=1;jettySize=auto;html=1;" parent="1" source="WLsBAxwANJh_R0PL17Mm-2" target="WLsBAxwANJh_R0PL17Mm-32" edge="1">
          <mxGeometry relative="1" as="geometry" />
        </mxCell>
        <mxCell id="WLsBAxwANJh_R0PL17Mm-2" value="chromosome" style="rounded=1;whiteSpace=wrap;html=1;" parent="1" vertex="1">
          <mxGeometry x="240" y="260" width="120" height="60" as="geometry" />
        </mxCell>
        <mxCell id="WLsBAxwANJh_R0PL17Mm-4" value="" style="endArrow=none;dashed=1;html=1;rounded=0;exitX=1;exitY=0.5;exitDx=0;exitDy=0;entryX=0;entryY=0.5;entryDx=0;entryDy=0;" parent="1" source="WLsBAxwANJh_R0PL17Mm-2" target="WLsBAxwANJh_R0PL17Mm-29" edge="1">
          <mxGeometry width="50" height="50" relative="1" as="geometry">
            <mxPoint x="450" y="260" as="sourcePoint" />
            <mxPoint x="440" y="290" as="targetPoint" />
          </mxGeometry>
        </mxCell>
        <mxCell id="WLsBAxwANJh_R0PL17Mm-26" style="edgeStyle=orthogonalEdgeStyle;rounded=0;orthogonalLoop=1;jettySize=auto;html=1;exitX=0.5;exitY=1;exitDx=0;exitDy=0;" parent="1" source="WLsBAxwANJh_R0PL17Mm-6" target="WLsBAxwANJh_R0PL17Mm-14" edge="1">
          <mxGeometry relative="1" as="geometry" />
        </mxCell>
        <mxCell id="WLsBAxwANJh_R0PL17Mm-27" style="edgeStyle=orthogonalEdgeStyle;rounded=0;orthogonalLoop=1;jettySize=auto;html=1;exitX=0.5;exitY=1;exitDx=0;exitDy=0;entryX=0.5;entryY=0;entryDx=0;entryDy=0;" parent="1" source="WLsBAxwANJh_R0PL17Mm-7" target="WLsBAxwANJh_R0PL17Mm-18" edge="1">
          <mxGeometry relative="1" as="geometry" />
        </mxCell>
        <mxCell id="WLsBAxwANJh_R0PL17Mm-12" value="AlexNet" style="swimlane;horizontal=0;" parent="1" vertex="1">
          <mxGeometry x="410" y="360" width="300" height="140" as="geometry" />
        </mxCell>
        <mxCell id="WLsBAxwANJh_R0PL17Mm-14" value="Conv2D" style="swimlane;fontStyle=0;childLayout=stackLayout;horizontal=1;startSize=30;horizontalStack=0;resizeParent=1;resizeParentMax=0;resizeLast=0;collapsible=1;marginBottom=0;" parent="WLsBAxwANJh_R0PL17Mm-12" vertex="1">
          <mxGeometry x="30" y="10" width="90" height="120" as="geometry" />
        </mxCell>
        <mxCell id="WLsBAxwANJh_R0PL17Mm-15" value="strides[2]" style="text;strokeColor=none;fillColor=none;align=left;verticalAlign=middle;spacingLeft=4;spacingRight=4;overflow=hidden;points=[[0,0.5],[1,0.5]];portConstraint=eastwest;rotatable=0;" parent="WLsBAxwANJh_R0PL17Mm-14" vertex="1">
          <mxGeometry y="30" width="90" height="30" as="geometry" />
        </mxCell>
        <mxCell id="WLsBAxwANJh_R0PL17Mm-16" value="use_bias[2]" style="text;strokeColor=none;fillColor=none;align=left;verticalAlign=middle;spacingLeft=4;spacingRight=4;overflow=hidden;points=[[0,0.5],[1,0.5]];portConstraint=eastwest;rotatable=0;" parent="WLsBAxwANJh_R0PL17Mm-14" vertex="1">
          <mxGeometry y="60" width="90" height="30" as="geometry" />
        </mxCell>
        <mxCell id="WLsBAxwANJh_R0PL17Mm-17" value="activation[5]" style="text;strokeColor=none;fillColor=none;align=left;verticalAlign=middle;spacingLeft=4;spacingRight=4;overflow=hidden;points=[[0,0.5],[1,0.5]];portConstraint=eastwest;rotatable=0;" parent="WLsBAxwANJh_R0PL17Mm-14" vertex="1">
          <mxGeometry y="90" width="90" height="30" as="geometry" />
        </mxCell>
        <mxCell id="WLsBAxwANJh_R0PL17Mm-18" value="MaxPool2D" style="swimlane;fontStyle=0;childLayout=stackLayout;horizontal=1;startSize=30;horizontalStack=0;resizeParent=1;resizeParentMax=0;resizeLast=0;collapsible=1;marginBottom=0;" parent="WLsBAxwANJh_R0PL17Mm-12" vertex="1">
          <mxGeometry x="125" y="10" width="70" height="90" as="geometry" />
        </mxCell>
        <mxCell id="WLsBAxwANJh_R0PL17Mm-19" value="strides[3]" style="text;strokeColor=none;fillColor=none;align=left;verticalAlign=middle;spacingLeft=4;spacingRight=4;overflow=hidden;points=[[0,0.5],[1,0.5]];portConstraint=eastwest;rotatable=0;" parent="WLsBAxwANJh_R0PL17Mm-18" vertex="1">
          <mxGeometry y="30" width="70" height="30" as="geometry" />
        </mxCell>
        <mxCell id="WLsBAxwANJh_R0PL17Mm-20" value="padding[2]" style="text;strokeColor=none;fillColor=none;align=left;verticalAlign=middle;spacingLeft=4;spacingRight=4;overflow=hidden;points=[[0,0.5],[1,0.5]];portConstraint=eastwest;rotatable=0;" parent="WLsBAxwANJh_R0PL17Mm-18" vertex="1">
          <mxGeometry y="60" width="70" height="30" as="geometry" />
        </mxCell>
        <mxCell id="WLsBAxwANJh_R0PL17Mm-22" value="..." style="swimlane;fontStyle=0;childLayout=stackLayout;horizontal=1;startSize=30;horizontalStack=0;resizeParent=1;resizeParentMax=0;resizeLast=0;collapsible=1;marginBottom=0;" parent="WLsBAxwANJh_R0PL17Mm-12" vertex="1" collapsed="1">
          <mxGeometry x="210" y="10" width="60" height="30" as="geometry">
            <mxRectangle x="210" y="10" width="70" height="60" as="alternateBounds" />
          </mxGeometry>
        </mxCell>
        <mxCell id="WLsBAxwANJh_R0PL17Mm-29" value="Hyperparameter index" style="swimlane;" parent="1" vertex="1">
          <mxGeometry x="440" y="235" width="270" height="110" as="geometry" />
        </mxCell>
        <mxCell id="WLsBAxwANJh_R0PL17Mm-6" value="1 1 3" style="rounded=1;whiteSpace=wrap;html=1;" parent="WLsBAxwANJh_R0PL17Mm-29" vertex="1">
          <mxGeometry x="10" y="45" width="70" height="30" as="geometry" />
        </mxCell>
        <mxCell id="WLsBAxwANJh_R0PL17Mm-7" value="1 0&amp;nbsp;" style="rounded=1;whiteSpace=wrap;html=1;" parent="WLsBAxwANJh_R0PL17Mm-29" vertex="1">
          <mxGeometry x="95" y="45" width="70" height="30" as="geometry" />
        </mxCell>
        <mxCell id="WLsBAxwANJh_R0PL17Mm-8" value="..." style="rounded=1;whiteSpace=wrap;html=1;" parent="WLsBAxwANJh_R0PL17Mm-29" vertex="1">
          <mxGeometry x="180" y="45" width="70" height="30" as="geometry" />
        </mxCell>
        <mxCell id="WLsBAxwANJh_R0PL17Mm-34" style="edgeStyle=orthogonalEdgeStyle;rounded=0;orthogonalLoop=1;jettySize=auto;html=1;" parent="1" source="WLsBAxwANJh_R0PL17Mm-32" target="WLsBAxwANJh_R0PL17Mm-35" edge="1">
          <mxGeometry relative="1" as="geometry">
            <mxPoint x="190" y="390" as="targetPoint" />
          </mxGeometry>
        </mxCell>
        <mxCell id="WLsBAxwANJh_R0PL17Mm-32" value="initPopulation" style="rounded=1;whiteSpace=wrap;html=1;" parent="1" vertex="1">
          <mxGeometry x="240" y="360" width="120" height="60" as="geometry" />
        </mxCell>
        <mxCell id="WLsBAxwANJh_R0PL17Mm-35" value="Population History" style="rounded=0;whiteSpace=wrap;html=1;" parent="1" vertex="1">
          <mxGeometry x="30" y="360" width="120" height="60" as="geometry" />
        </mxCell>
        <mxCell id="WLsBAxwANJh_R0PL17Mm-36" value="" style="endArrow=none;dashed=1;html=1;dashPattern=1 3;strokeWidth=2;rounded=0;entryX=0.5;entryY=1;entryDx=0;entryDy=0;exitX=0.5;exitY=0;exitDx=0;exitDy=0;" parent="1" source="WLsBAxwANJh_R0PL17Mm-37" target="WLsBAxwANJh_R0PL17Mm-32" edge="1">
          <mxGeometry width="50" height="50" relative="1" as="geometry">
            <mxPoint x="290" y="480" as="sourcePoint" />
            <mxPoint x="330" y="470" as="targetPoint" />
          </mxGeometry>
        </mxCell>
        <mxCell id="WLsBAxwANJh_R0PL17Mm-39" style="edgeStyle=orthogonalEdgeStyle;rounded=0;orthogonalLoop=1;jettySize=auto;html=1;" parent="1" source="WLsBAxwANJh_R0PL17Mm-37" target="WLsBAxwANJh_R0PL17Mm-38" edge="1">
          <mxGeometry relative="1" as="geometry" />
        </mxCell>
        <mxCell id="WLsBAxwANJh_R0PL17Mm-37" value="crossover&lt;br&gt;(Uniform crossover)" style="rounded=1;whiteSpace=wrap;html=1;" parent="1" vertex="1">
          <mxGeometry x="240" y="510" width="120" height="60" as="geometry" />
        </mxCell>
        <mxCell id="WLsBAxwANJh_R0PL17Mm-43" style="edgeStyle=orthogonalEdgeStyle;rounded=0;orthogonalLoop=1;jettySize=auto;html=1;entryX=1;entryY=0.5;entryDx=0;entryDy=0;" parent="1" source="WLsBAxwANJh_R0PL17Mm-38" target="WLsBAxwANJh_R0PL17Mm-40" edge="1">
          <mxGeometry relative="1" as="geometry" />
        </mxCell>
        <mxCell id="rTqF3BOKp0OAgKnrvoar-4" style="edgeStyle=orthogonalEdgeStyle;rounded=0;orthogonalLoop=1;jettySize=auto;html=1;entryX=0;entryY=0.5;entryDx=0;entryDy=0;dashed=1;endArrow=none;endFill=0;" edge="1" parent="1" source="WLsBAxwANJh_R0PL17Mm-38" target="rTqF3BOKp0OAgKnrvoar-1">
          <mxGeometry relative="1" as="geometry" />
        </mxCell>
        <mxCell id="WLsBAxwANJh_R0PL17Mm-38" value="mutate&lt;br&gt;(random resetting)" style="rounded=1;whiteSpace=wrap;html=1;" parent="1" vertex="1">
          <mxGeometry x="240" y="610" width="120" height="60" as="geometry" />
        </mxCell>
        <mxCell id="WLsBAxwANJh_R0PL17Mm-44" value="If no duplicates" style="edgeStyle=orthogonalEdgeStyle;rounded=0;orthogonalLoop=1;jettySize=auto;html=1;fillColor=#d5e8d4;strokeColor=#82b366;strokeWidth=2;" parent="1" source="WLsBAxwANJh_R0PL17Mm-40" target="WLsBAxwANJh_R0PL17Mm-47" edge="1">
          <mxGeometry relative="1" as="geometry">
            <mxPoint x="90" y="770" as="targetPoint" />
          </mxGeometry>
        </mxCell>
        <mxCell id="WLsBAxwANJh_R0PL17Mm-45" value="If there is duplicate" style="edgeStyle=orthogonalEdgeStyle;rounded=0;orthogonalLoop=1;jettySize=auto;html=1;exitX=0.75;exitY=0;exitDx=0;exitDy=0;entryX=0;entryY=0.5;entryDx=0;entryDy=0;fillColor=#f8cecc;strokeColor=#b85450;strokeWidth=2;" parent="1" source="WLsBAxwANJh_R0PL17Mm-40" target="WLsBAxwANJh_R0PL17Mm-37" edge="1">
          <mxGeometry relative="1" as="geometry" />
        </mxCell>
        <mxCell id="WLsBAxwANJh_R0PL17Mm-40" value="check duplicates" style="rounded=1;whiteSpace=wrap;html=1;" parent="1" vertex="1">
          <mxGeometry x="30" y="610" width="120" height="60" as="geometry" />
        </mxCell>
        <mxCell id="WLsBAxwANJh_R0PL17Mm-47" value="" style="ellipse;html=1;shape=endState;fillColor=#000000;strokeColor=#ff0000;" parent="1" vertex="1">
          <mxGeometry x="75" y="755.0000000000002" width="30" height="30" as="geometry" />
        </mxCell>
        <mxCell id="WLsBAxwANJh_R0PL17Mm-49" value="" style="endArrow=none;dashed=1;html=1;rounded=0;fontSize=16;strokeWidth=2;exitX=0.25;exitY=0;exitDx=0;exitDy=0;entryX=0.25;entryY=1;entryDx=0;entryDy=0;" parent="1" source="WLsBAxwANJh_R0PL17Mm-40" target="WLsBAxwANJh_R0PL17Mm-35" edge="1">
          <mxGeometry width="50" height="50" relative="1" as="geometry">
            <mxPoint x="50" y="600" as="sourcePoint" />
            <mxPoint x="80" y="460" as="targetPoint" />
          </mxGeometry>
        </mxCell>
        <mxCell id="rTqF3BOKp0OAgKnrvoar-3" value="" style="edgeStyle=orthogonalEdgeStyle;rounded=0;orthogonalLoop=1;jettySize=auto;html=1;" edge="1" parent="1" source="rTqF3BOKp0OAgKnrvoar-1" target="rTqF3BOKp0OAgKnrvoar-2">
          <mxGeometry relative="1" as="geometry" />
        </mxCell>
        <mxCell id="rTqF3BOKp0OAgKnrvoar-1" value="Original&lt;br&gt;1 1 3 ... 1 0 &amp;nbsp;..." style="rounded=0;whiteSpace=wrap;html=1;fillColor=#fff2cc;strokeColor=#d6b656;" vertex="1" parent="1">
          <mxGeometry x="415" y="610" width="120" height="60" as="geometry" />
        </mxCell>
        <mxCell id="rTqF3BOKp0OAgKnrvoar-2" value="After mutation&lt;br&gt;0 1 4 ... 0 1 ...&amp;nbsp;" style="rounded=0;whiteSpace=wrap;html=1;fillColor=#ffe6cc;strokeColor=#d79b00;" vertex="1" parent="1">
          <mxGeometry x="414" y="690" width="120" height="60" as="geometry" />
        </mxCell>
      </root>
    </mxGraphModel>
  </diagram>
</mxfile>
